<svg width="117" height="100" viewBox="0 0 117 100" version="1.1" xmlns="http://www.w3.org/2000/svg" xmlns:xlink="http://www.w3.org/1999/xlink"><title>hands</title><desc>Created with Sketch.</desc><defs><path d="M7.3335,0.62517 L90.3335,0.62517 C94.3335,0.62517 97.66683,3.9585 97.66683,7.9585 C97.66683,9.62517 97.16683,11.12517 96.16683,12.29183 L109.3335,12.29183 C113.316032,12.29183 116.802921,15.5961196 116.8333,19.5728034 L116.8333,19.6788277 C116.803655,23.6549354 113.482301,26.9585 109.5002,26.9585 L97.16683,26.9585 L97.16683,27.12517 C97.16683,31.1088265 93.8606785,34.4312548 89.8824878,34.4583333 L60.6178422,34.4583333 C56.6396515,34.4312548 53.3335,31.1088265 53.3335,27.12517 L53.3335,26.9585 L22.0001667,26.9585 C18.0001667,26.9585 14.66683,23.62517 14.66683,19.62517 C14.66683,17.9585 15.16683,16.4585 16.16683,15.29183 L7.3335,15.29183 C3.3335,15.29183 0.0001666667,11.9585 0.0001666667,7.9585 C0.0001666667,3.9585 3.3335,0.62517 7.3335,0.62517 Z" id="path-1"/><path d="M7.99983,15.12483 C4.0015,15.12483 0.66817,11.7915 0.66817,7.7915 C0.66817,3.7915 4.0015,0.45817 7.83317,0.45817 L22.49983,0.45817 C26.5015,0.45817 29.99983,3.7915 29.99983,7.7915 C29.99983,11.7915 26.6665,15.12483 22.6665,15.12483 L7.99983,15.12483 Z" id="path-3"/><path d="M7.6665,15.12483 C3.66817,15.12483 0.33483,11.7915 0.33483,7.7915 C0.33483,3.7915 3.66817,0.45817 7.6665,0.45817 L14.99983,0.45817 C18.99983,0.45817 22.3332,3.7915 22.3332,7.7915 C22.3332,11.7915 18.99983,15.12483 14.99983,15.12483 L7.6665,15.12483 Z" id="path-5"/><path d="M23.46667,5.2 L32,5.2 C36.13333,5.2 37.2,8.66667 37.2,8.66667 L18.8,15.33333 C17.46667,15.73333 15.86667,15.73333 14.4,15.2 L0.66667,9.46667 L0.66667,0 L7.6,0 C10.4,0 12.93333,1.2 14.53333,3.46667 L19.73333,3.46667 C22.4,3.46667 24.93333,6.13333 24.93333,8.66667 L23.46667,5.2 Z" id="path-7"/><path d="M2,0 L8.66667,0 C9.77124,0 10.66667,0.89543 10.66667,2 L10.66667,15.33333 C10.66667,16.4379 9.77124,17.33333 8.66667,17.33333 L2,17.33333 C0.89543,17.33333 0,16.4379 0,15.33333 L0,2 C0,0.89543 0.89543,0 2,0 Z" id="path-9"/><path d="M2,0 L8.66667,0 C9.77124,0 10.66667,0.89543 10.66667,2 L10.66667,15.33333 C10.66667,16.4379 9.77124,17.33333 8.66667,17.33333 L2,17.33333 C0.89543,17.33333 0,16.4379 0,15.33333 L0,2 C0,0.89543 0.89543,0 2,0 Z" id="path-11"/><path d="M14.53333,10.8 L6,10.8 C1.86667,10.8 0.8,7.33333 0.8,7.33333 L19.2,0.66667 C20.53333,0.26667 22.13333,0.26667 23.6,0.8 L37.33333,6.53333 L37.33333,16 L30.4,16 C27.6,16 25.06667,14.8 23.46667,12.53333 L18.26667,12.53333 C15.6,12.53333 13.06667,9.86667 13.06667,7.33333 L14.53333,10.8 Z" id="path-13"/><path d="M9,18 L2.33333,18 C1.22876,18 0.33333,17.10457 0.33333,16 L0.33333,2.66667 C0.33333,1.5621 1.22876,0.66667 2.33333,0.66667 L9,0.66667 C10.10457,0.66667 11,1.5621 11,2.66667 L11,16 C11,17.10457 10.10457,18 9,18 Z" id="path-15"/><path d="M9,18 L2.33333,18 C1.22876,18 0.33333,17.10457 0.33333,16 L0.33333,2.66667 C0.33333,1.5621 1.22876,0.66667 2.33333,0.66667 L9,0.66667 C10.10457,0.66667 11,1.5621 11,2.66667 L11,16 C11,17.10457 10.10457,18 9,18 Z" id="path-17"/><path d="M6.94911,2.21816 C7.34911,1.41816 7.84911,0.81816 8.84911,0.41816 C10.14911,-0.18184 11.44911,-0.18184 12.64911,0.71816 C13.74911,1.51816 14.24911,2.71816 14.04911,4.11816 C13.74911,5.91816 12.74911,7.31816 11.44911,8.51816 C10.14911,9.71816 8.64911,10.61816 7.04911,11.31816 C5.44911,10.61816 3.94911,9.71816 2.64911,8.51816 C1.24911,7.31816 0.24911,5.91816 0.04911,4.11816 C-0.15089,2.71816 0.24911,1.51816 1.44911,0.71816 C2.64911,-0.08184 3.94911,-0.18184 5.24911,0.41816 C6.04911,0.81816 6.54911,1.41816 6.94911,2.21816 Z" id="path-19"/><path d="M6.37417,0.00017 C7.04083,0.00017 7.54083,0.50017 7.54083,1.16683 C7.54083,3.16683 9.0425,4.66683 11.0425,4.66683 C11.7075,4.66683 12.2075,5.16683 12.2075,5.8335 C12.2075,6.50017 11.7075,7.00017 11.0425,7.00017 C9.0425,7.00017 7.54083,8.50017 7.54083,10.50017 C7.54083,11.16683 7.04083,11.66683 6.37417,11.66683 C5.70917,11.66683 5.20917,11.16683 5.20917,10.50017 C5.20917,8.50017 3.7075,7.00017 1.7075,7.00017 C1.0425,7.00017 0.54083,6.50017 0.54083,5.8335 C0.54083,5.16683 1.0425,4.66683 1.7075,4.66683 C3.7075,4.66683 5.20917,3.16683 5.20917,1.16683 C5.20917,0.50017 5.70917,0.00017 6.37417,0.00017 Z" id="path-21"/><path d="M6.37417,0.00017 C7.04083,0.00017 7.54083,0.50017 7.54083,1.16683 C7.54083,3.16683 9.0425,4.66683 11.0425,4.66683 C11.7075,4.66683 12.2075,5.16683 12.2075,5.8335 C12.2075,6.50017 11.7075,7.00017 11.0425,7.00017 C9.0425,7.00017 7.54083,8.50017 7.54083,10.50017 C7.54083,11.16683 7.04083,11.66683 6.37417,11.66683 C5.70917,11.66683 5.20917,11.16683 5.20917,10.50017 C5.20917,8.50017 3.7075,7.00017 1.7075,7.00017 C1.0425,7.00017 0.54083,6.50017 0.54083,5.8335 C0.54083,5.16683 1.0425,4.66683 1.7075,4.66683 C3.7075,4.66683 5.20917,3.16683 5.20917,1.16683 C5.20917,0.50017 5.70917,0.00017 6.37417,0.00017 Z" id="path-23"/><path d="M6.7075,0.66683 C7.3742,0.66683 7.8742,1.16683 7.8742,1.8335 C7.8742,3.8335 9.3758,5.3335 11.3758,5.3335 C12.0408,5.3335 12.5408,5.8335 12.5408,6.50017 C12.5408,7.16683 12.0408,7.66683 11.3758,7.66683 C9.3758,7.66683 7.8742,9.16683 7.8742,11.16683 C7.8742,11.8335 7.3742,12.3335 6.7075,12.3335 C6.0425,12.3335 5.5425,11.8335 5.5425,11.16683 C5.5425,9.16683 4.0408,7.66683 2.04083,7.66683 C1.37583,7.66683 0.87417,7.16683 0.87417,6.50017 C0.87417,5.8335 1.37583,5.3335 2.04083,5.3335 C4.0408,5.3335 5.5425,3.8335 5.5425,1.8335 C5.5425,1.16683 6.0425,0.66683 6.7075,0.66683 Z" id="path-25"/></defs><g id="Page-1" stroke="none" stroke-width="1" fill="none" fill-rule="evenodd"><g id="hands"><g id="Group-3" transform="translate(0.000000, 65.000000)"><mask id="mask-2" fill="#fff"><use xlink:href="#path-1"/></mask><polygon id="Fill-1" fill="#EEE" mask="url(#mask-2)" points="-4.999833 -4.37483 121.8335 -4.37483 121.8335 39.4585 -4.999833 39.4585"/></g><g id="Group-6" transform="translate(16.000000, 6.000000)"><mask id="mask-4" fill="#fff"><use xlink:href="#path-3"/></mask><polygon id="Fill-4" fill="#EEE" mask="url(#mask-4)" points="-4.33183 -4.54183 34.99983 -4.54183 34.99983 20.12483 -4.33183 20.12483"/></g><g id="Group-9" transform="translate(78.000000, 26.000000)"><mask id="mask-6" fill="#fff"><use xlink:href="#path-5"/></mask><polygon id="Fill-7" fill="#EEE" mask="url(#mask-6)" points="-4.66517 -4.54183 27.3332 -4.54183 27.3332 20.12483 -4.66517 20.12483"/></g><g id="Group-12" transform="translate(45.000000, 65.000000)"><mask id="mask-8" fill="#fff"><use xlink:href="#path-7"/></mask><polygon id="Fill-10" fill="#FFF" mask="url(#mask-8)" points="-4.33333 -5 42.2 -5 42.2 20.61846 -4.33333 20.61846"/></g><path d="M68.46667,70.2 L77,70.2 C81.13334,70.2 82.2,73.666667 82.2,73.666667 L63.8,80.33333 C62.46667,80.73333 60.86667,80.73333 59.4,80.2 L45.66667,74.466667 L45.66667,65 L52.600003,65 C55.400003,65 57.93334,66.2 59.53334,68.466667 L64.73334,68.466667 C67.4,68.466667 69.93334,71.133333 69.93334,73.666667 L57.8,73.666667" id="Stroke-13" stroke="#A5A5A5" stroke-width="2" stroke-linecap="round" stroke-linejoin="round"/><g id="Group-21" transform="translate(36.000000, 61.000000)"><g id="Group-17"><mask id="mask-10" fill="#fff"><use xlink:href="#path-9"/></mask><path d="M2,0 L8.66667,0 C9.77124,0 10.66667,0.89543 10.66667,2 L10.66667,15.33333 C10.66667,16.4379 9.77124,17.33333 8.66667,17.33333 L2,17.33333 C0.89543,17.33333 0,16.4379 0,15.33333 L0,2 C0,0.89543 0.89543,0 2,0 Z" id="Fill-15" fill="#00B496" mask="url(#mask-10)"/></g><g id="Group-20"><mask id="mask-12" fill="#fff"><use xlink:href="#path-11"/></mask><path d="M2,0 L8.666667,0 C9.771236,0 10.66667,0.8954305 10.66667,2 L10.66667,15.33333 C10.66667,16.4379 9.771236,17.33333 8.666667,17.33333 L2,17.33333 C0.8954305,17.33333 0,16.4379 0,15.33333 L0,2 C0,0.8954305 0.8954305,0 2,0 Z" id="Stroke-18" stroke="#00B496" stroke-width="4" stroke-linejoin="round" mask="url(#mask-12)"/></g></g><g id="Group-24" transform="translate(35.000000, 27.000000)"><mask id="mask-14" fill="#fff"><use xlink:href="#path-13"/></mask><polygon id="Fill-22" fill="#FFF" mask="url(#mask-14)" points="42.33333 21 -4.2 21 -4.2 -4.61846 42.33333 -4.61846"/></g><path d="M49.53333,37.8 L41,37.8 C36.86666,37.8 35.8,34.333333 35.8,34.333333 L54.2,27.66667 C55.53333,27.26667 57.13333,27.26667 58.6,27.8 L72.33333,33.533333 L72.33333,43 L65.399997,43 C62.599997,43 60.06666,41.8 58.46666,39.533333 L53.26666,39.533333 C50.6,39.533333 48.06666,36.866667 48.06666,34.333333 L60.2,34.333333" id="Stroke-25" stroke="#A5A5A5" stroke-width="2" stroke-linecap="round" stroke-linejoin="round"/><g id="Group-33" transform="translate(71.000000, 29.000000)"><g id="Group-29"><mask id="mask-16" fill="#fff"><use xlink:href="#path-15"/></mask><path d="M9,18 L2.33333,18 C1.22876,18 0.33333,17.10457 0.33333,16 L0.33333,2.66667 C0.33333,1.5621 1.22876,0.66667 2.33333,0.66667 L9,0.66667 C10.10457,0.66667 11,1.5621 11,2.66667 L11,16 C11,17.10457 10.10457,18 9,18 Z" id="Fill-27" fill="#FF7A5E" mask="url(#mask-16)"/></g><g id="Group-32"><mask id="mask-18" fill="#fff"><use xlink:href="#path-17"/></mask><path d="M9,18 L2.33333,18 C1.228764,18 0.33333,17.1045695 0.33333,16 L0.33333,2.66667 C0.33333,1.5621 1.228764,0.66667 2.33333,0.66667 L9,0.66667 C10.1045695,0.66667 11,1.5621 11,2.66667 L11,16 C11,17.1045695 10.1045695,18 9,18 Z" id="Stroke-30" stroke="#FF7A5E" stroke-width="4" stroke-linejoin="round" mask="url(#mask-18)"/></g></g><g id="Group-36" transform="translate(52.000000, 49.000000)"><mask id="mask-20" fill="#fff"><use xlink:href="#path-19"/></mask><polygon id="Fill-34" fill="#FF3B40" mask="url(#mask-20)" points="-5 -5 19.09226 -5 19.09226 16.31816 -5 16.31816"/></g><g id="Group-45" transform="translate(48.000000, 11.000000)" stroke-linecap="round" stroke-linejoin="round"><path d="M10.949111,40.218163 C10.549111,39.418163 10.049111,38.8181631 9.249111,38.4181631 C7.949111,37.8181631 6.649111,37.9181631 5.449111,38.7181631 C4.2491106,39.518163 3.8491106,40.718163 4.04911064,42.118163 C4.2491106,43.918163 5.249111,45.318163 6.649111,46.518163 C7.949111,47.718163 9.449111,48.61816 11.049111,49.31816 C12.649111,48.61816 14.14911,47.718163 15.44911,46.518163 C16.74911,45.318163 17.74911,43.918163 18.04911,42.118163 C18.24911,40.718163 17.74911,39.518163 16.64911,38.7181631 C15.44911,37.8181631 14.14911,37.8181631 12.849111,38.4181631 C11.849111,38.8181631 11.349111,39.418163 10.949111,40.218163 Z" id="Stroke-37" stroke="#FF3B40" stroke-width="2"/><path d="M11.1235,0.66683 L11.1235,7.16683" id="Stroke-39" stroke="#FF7AAB" stroke-width="3"/><path d="M0.78983,4.8335 L5.28983,9.3335" id="Stroke-41" stroke="#FF7AAB" stroke-width="3"/><path d="M21.289503,4.8335 L16.79117,9.3335" id="Stroke-43" stroke="#FF7AAB" stroke-width="3"/></g><g id="Group-48" transform="translate(13.000000, 40.000000)"><mask id="mask-22" fill="#fff"><use xlink:href="#path-21"/></mask><polygon id="Fill-46" fill="#FAC2B8" mask="url(#mask-22)" points="-4.459167 -4.99983 17.2075 -4.99983 17.2075 16.66683 -4.459167 16.66683"/></g><g id="Group-51" transform="translate(33.000000, 0.000000)"><mask id="mask-24" fill="#fff"><use xlink:href="#path-23"/></mask><polygon id="Fill-49" fill="#FFD200" mask="url(#mask-24)" points="-4.45917 -4.9998 17.2075 -4.9998 17.2075 16.66683 -4.45917 16.66683"/></g><g id="Group-54" transform="translate(96.000000, 26.000000)"><mask id="mask-26" fill="#fff"><use xlink:href="#path-25"/></mask><polygon id="Fill-52" fill="#B5EDD1" mask="url(#mask-26)" points="-4.12583 -4.33317 17.5408 -4.33317 17.5408 17.3335 -4.12583 17.3335"/></g></g></g></svg>